  0
SECTION
  2
HEADER
  9
$ACADVER
  1
AC1003
  9
$EXTMIN
 10
0.85
 20
11.4043307086614
  9
$EXTMAX
 10
10.7244094488189
 20
1
  9
$INSUNITS
 70
1
  9
$INSBASE
 10
5.78720472440945
 20
6.20216535433071
999
Created with OMAX LAYOUT for Windows. (www.omax.com) 26-06-2026
  0
ENDSEC
  0
SECTION
  2
TABLES
  0
TABLE
  2
LAYER
 70
    10
  0
LAYER
  2
0
 70
     0
 62
     7
  6
CONTINUOUS
  0
LAYER
  2
1
 70
     0
 62
     7
  6
CONTINUOUS
  0
LAYER
  2
2
 70
     0
 62
     7
  6
CONTINUOUS
  0
LAYER
  2
3
 70
     0
 62
     7
  6
CONTINUOUS
  0
LAYER
  2
4
 70
     0
 62
     7
  6
CONTINUOUS
  0
LAYER
  2
5
 70
     0
 62
     7
  6
CONTINUOUS
  0
LAYER
  2
6
 70
     0
 62
     7
  6
CONTINUOUS
  0
LAYER
  2
7
 70
     0
 62
     7
  6
CONTINUOUS
  0
LAYER
  2
8
 70
     0
 62
     7
  6
CONTINUOUS
  0
LAYER
  2
9
 70
     0
 62
     7
  6
CONTINUOUS
  0
LAYER
  2
10
 70
     0
 62
     7
  6
CONTINUOUS
  0
LAYER
  2
11
 70
     0
 62
     7
  6
CONTINUOUS
  0
LAYER
  2
12
 70
     0
 62
     7
  6
CONTINUOUS
  0
LAYER
  2
13
 70
     0
 62
     7
  6
CONTINUOUS
  0
LAYER
  2
14
 70
     0
 62
     7
  6
CONTINUOUS
  0
LAYER
  2
15
 70
     0
 62
     7
  6
CONTINUOUS
  0
LAYER
  2
16
 70
     0
 62
     7
  6
CONTINUOUS
  0
LAYER
  2
17
 70
     0
 62
     7
  6
CONTINUOUS
  0
LAYER
  2
18
 70
     0
 62
     7
  6
CONTINUOUS
  0
LAYER
  2
19
 70
     0
 62
     7
  6
CONTINUOUS
  0
LAYER
  2
20
 70
     0
 62
     7
  6
CONTINUOUS
  0
LAYER
  2
21
 70
     0
 62
     7
  6
CONTINUOUS
  0
LAYER
  2
22
 70
     0
 62
     7
  6
CONTINUOUS
  0
LAYER
  2
23
 70
     0
 62
     7
  6
CONTINUOUS
  0
LAYER
  2
24
 70
     0
 62
     7
  6
CONTINUOUS
  0
LAYER
  2
25
 70
     0
 62
     7
  6
CONTINUOUS
  0
LAYER
  2
26
 70
     0
 62
     7
  6
CONTINUOUS
  0
LAYER
  2
27
 70
     0
 62
     7
  6
CONTINUOUS
  0
LAYER
  2
28
 70
     0
 62
     7
  6
CONTINUOUS
  0
LAYER
  2
29
 70
     0
 62
     7
  6
CONTINUOUS
  0
LAYER
  2
30
 70
     0
 62
     7
  6
CONTINUOUS
  0
LAYER
  2
31
 70
     0
 62
     7
  6
CONTINUOUS
  0
ENDTAB
  0
ENDSEC
  0
SECTION
  2
ENTITIES
  0
LINE
  8
0
  6
CONTINUOUS
 62
0
 10
0.85
 20
1.00011991594112
 30
0.0
 11
10.5286729310025
 21
1.1950147830538
 31
0.0
  0
LINE
  8
0
  6
CONTINUOUS
 62
0
 10
10.5265263076086
 20
1.19873284383686
 30
0.0
 11
9.93871431108028
 21
2.22310787113538
 31
0.0
  0
LINE
  8
0
  6
CONTINUOUS
 62
0
 10
9.91977093226613
 20
2.22805627942518
 30
0.0
 11
1.46978169273473
 21
6.35504518962418
 31
0.0
  0
LINE
  8
0
  6
CONTINUOUS
 62
0
 10
1.46990480458429
 20
6.33546654848207
 30
0.0
 11
1.39309995691236
 21
3.75796686783473
 31
0.0
  0
LINE
  8
0
  6
CONTINUOUS
 62
0
 10
1.3942111309464
 20
3.75381990988364
 30
0.0
 11
1.39309995691236
 21
2.57686450563001
 31
0.0
  0
LINE
  8
0
  6
CONTINUOUS
 62
0
 10
1.3942111309464
 20
2.57271754767892
 30
0.0
 11
1.47125568891972
 21
2.21783701075438
 31
0.0
  0
LINE
  8
0
  6
CONTINUOUS
 62
0
 10
1.49019906773387
 20
2.21288860246459
 30
0.0
 11
3.5965895862034
 21
1.19573651781636
 31
0.0
  0
LINE
  8
0
  6
CONTINUOUS
 62
0
 10
3.60030764698646
 20
1.19788314121033
 30
0.0
 11
5.80641546960194
 21
2.2205380162296
 31
0.0
  0
LINE
  8
0
  6
CONTINUOUS
 62
0
 10
5.80122922748213
 20
2.23941766766107
 30
0.0
 11
5.80269571588764
 21
6.35141086596308
 31
0.0
  0
LINE
  8
0
  6
CONTINUOUS
 62
0
 10
5.82227435702975
 20
6.35153397781264
 30
0.0
 11
9.94018830726527
 21
6.35361622769866
 31
0.0
  0
LINE
  8
0
  6
CONTINUOUS
 62
0
 10
9.94006519541571
 20
6.37319486884077
 30
0.0
 11
10.5281598856073
 21
8.91132447074795
 31
0.0
  0
LINE
  8
0
  6
CONTINUOUS
 62
0
 10
10.5270487115733
 20
8.91547142869904
 30
0.0
 11
10.4509655210318
 21
9.97642479224499
 31
0.0
  0
LINE
  8
0
  6
CONTINUOUS
 62
0
 10
10.4466722742438
 20
9.97642479224499
 30
0.0
 11
9.85775737299061
 21
9.97429235082853
 31
0.0
  0
LINE
  8
0
  6
CONTINUOUS
 62
0
 10
9.85886854702465
 20
9.97843930877962
 30
0.0
 11
9.93943988203736
 21
10.4861102963645
 31
0.0
  0
LINE
  8
0
  6
CONTINUOUS
 62
0
 10
9.9491225846192
 20
10.5031274528899
 30
0.0
 11
10.4509655210318
 21
11.1575271544497
 31
0.0
  0
LINE
  8
0
  6
CONTINUOUS
 62
0
 10
10.4466722742438
 20
11.1575271544497
 30
0.0
 11
9.8604143399294
 21
11.1575271544497
 31
0.0
  0
LINE
  8
0
  6
CONTINUOUS
 62
0
 10
9.85612109314147
 20
11.1575271544497
 30
0.0
 11
7.69076676243281
 21
11.1574334754715
 31
0.0
  0
LINE
  8
0
  6
CONTINUOUS
 62
0
 10
7.69506000922074
 20
11.1574334754715
 30
0.0
 11
8.28286373643992
 21
11.1595416709843
 31
0.0
  0
LINE
  8
0
  6
CONTINUOUS
 62
0
 10
8.28397491047396
 20
11.1553947130332
 30
0.0
 11
8.2856111903231
 21
9.97642479224499
 31
0.0
  0
LINE
  8
0
  6
CONTINUOUS
 62
0
 10
8.28131794353517
 20
9.97642479224499
 30
0.0
 11
7.69506000922074
 21
9.97642479224499
 31
0.0
  0
LINE
  8
0
  6
CONTINUOUS
 62
0
 10
7.69076676243281
 20
9.97642479224499
 30
0.0
 11
6.12025685961444
 21
9.97642479224499
 31
0.0
  0
LINE
  8
0
  6
CONTINUOUS
 62
0
 10
6.11596361282651
 20
9.97642479224499
 30
0.0
 11
5.52652630760857
 21
9.97449550261984
 31
0.0
  0
LINE
  8
0
  6
CONTINUOUS
 62
0
 10
5.52867293100254
 20
9.9782135634029
 30
0.0
 11
5.80604562704089
 21
10.4867431298646
 31
0.0
  0
LINE
  8
0
  6
CONTINUOUS
 62
0
 10
5.81099403533069
 20
10.5056865086788
 30
0.0
 11
6.12025685961444
 21
11.1575271544497
 31
0.0
  0
LINE
  8
0
  6
CONTINUOUS
 62
0
 10
6.11596361282651
 20
11.1575271544497
 30
0.0
 11
5.52970567851207
 21
11.1575271544497
 31
0.0
  0
LINE
  8
0
  6
CONTINUOUS
 62
0
 10
5.52541243172415
 20
11.1575271544497
 30
0.0
 11
3.36005810101549
 21
11.1574334754715
 31
0.0
  0
LINE
  8
0
  6
CONTINUOUS
 62
0
 10
3.36435134780341
 20
11.1574334754715
 30
0.0
 11
3.9521550750226
 21
11.1595416709843
 31
0.0
  0
LINE
  8
0
  6
CONTINUOUS
 62
0
 10
3.95326624905664
 20
11.1553947130332
 30
0.0
 11
3.95490252890577
 21
9.97642479224499
 31
0.0
  0
LINE
  8
0
  6
CONTINUOUS
 62
0
 10
3.95060928211785
 20
9.97642479224499
 30
0.0
 11
3.36160389392023
 21
9.97843930877962
 31
0.0
  0
LINE
  8
0
  6
CONTINUOUS
 62
0
 10
3.36271506795427
 20
9.97429235082853
 30
0.0
 11
3.6004865528741
 21
8.91398665726087
 31
0.0
  0
LINE
  8
0
  6
CONTINUOUS
 62
0
 10
3.59633959492301
 20
8.91287548322683
 30
0.0
 11
2.54594924403035
 21
8.56180811265438
 31
0.0
  0
LINE
  8
0
  6
CONTINUOUS
 62
0
 10
2.53021428795564
 20
8.5608328763405
 30
0.0
 11
1.81965012380956
 21
8.559848214356
 31
0.0
  0
LINE
  8
0
  6
CONTINUOUS
 62
0
 10
1.81093806634969
 20
8.57298746788719
 30
0.0
 11
1.19470377030682
 21
9.97633111326683
 31
0.0
  0
LINE
  8
0
  6
CONTINUOUS
 62
0
 10
1.19899701709475
 20
9.97633111326683
 30
0.0
 11
2.18324898559869
 21
9.97642479224499
 31
0.0
  0
LINE
  8
0
  6
CONTINUOUS
 62
0
 10
2.17895573881076
 20
9.97642479224499
 30
0.0
 11
1.78851545068758
 21
9.97454234210892
 31
0.0
  0
LINE
  8
0
  6
CONTINUOUS
 62
0
 10
1.78636882729361
 20
9.97826040289198
 30
0.0
 11
1.47426096167127
 21
10.4856191214722
 31
0.0
  0
LINE
  8
0
  6
CONTINUOUS
 62
0
 10
1.48801809836561
 20
10.4995503646138
 30
0.0
 11
2.18324898559869
 21
11.1575271544497
 31
0.0
  0
LINE
  8
0
  6
CONTINUOUS
 62
0
 10
2.17895573881076
 20
11.1575271544497
 30
0.0
 11
1.78954819819711
 21
11.1575271544497
 31
0.0
  0
LINE
  8
0
  6
CONTINUOUS
 62
0
 10
1.78525495140919
 20
11.1575271544497
 30
0.0
 11
1.19873284383686
 21
11.1564475674511
 31
0.0
  0
LINE
  8
0
  6
CONTINUOUS
 62
0
 10
1.1950147830538
 20
11.1585941908451
 30
0.0
 11
0.85
 21
11.3543307086614
 31
0.0
  0
LINE
  8
0
  6
CONTINUOUS
 62
0
 10
1
 20
11.4043307086614
 30
0.0
 11
0.85
 21
11.4043307086614
 31
0.0
  0
ARC
  8
1
  6
CONTINUOUS
 62
1
 10
10.5275590551175
 20
1.196850393703
 30
0.0
 40
0.0492125984246051
 50
29.9999999974272
 51
180.000000002572
  0
ARC
  8
1
  6
CONTINUOUS
 62
1
 10
10.5275590551181
 20
1.19685039370079
 30
0.0
 40
0.0492125984251972
 50
179.999999999999
 51
359.999999999999
  0
ARC
  8
1
  6
CONTINUOUS
 62
1
 10
10.5275590551346
 20
1.19685039370521
 30
0.0
 40
0.0492125984087039
 50
359.999999994855
 51
30.0000000051453
  0
ARC
  8
1
  6
CONTINUOUS
 62
1
 10
9.93726846455538
 20
2.22047244094797
 30
0.0
 40
0.0688976377837301
 50
149.999999997424
 51
180.000000002569
  0
ARC
  8
1
  6
CONTINUOUS
 62
1
 10
9.93726846456693
 20
2.22047244094488
 30
0.0
 40
0.068897637795275
 50
179.999999999999
 51
359.999999999999
  0
ARC
  8
1
  6
CONTINUOUS
 62
1
 10
9.93726846456859
 20
2.22047244095107
 30
0.0
 40
0.0688976377936162
 50
359.999999994855
 51
150.000000005145
  0
ARC
  8
1
  6
CONTINUOUS
 62
1
 10
1.47270153543782
 20
6.35433070865523
 30
0.0
 40
0.0688976377905283
 50
254.999999994854
 51
5.1446044472515E-9
  0
ARC
  8
1
  6
CONTINUOUS
 62
1
 10
1.47270153543307
 20
6.35433070866142
 30
0.0
 40
0.0688976377952757
 50
359.999999999999
 51
180
  0
ARC
  8
1
  6
CONTINUOUS
 62
1
 10
1.47270153542904
 20
6.35433070865833
 30
0.0
 40
0.0688976377912442
 50
179.999999997427
 51
255.000000002572
  0
ARC
  8
1
  6
CONTINUOUS
 62
1
 10
1.39370078740216
 20
3.75590551180661
 30
0.0
 40
0.0492125984246151
 50
194.999999994855
 51
5.14473803054813E-9
  0
ARC
  8
1
  6
CONTINUOUS
 62
1
 10
1.39370078740157
 20
3.75590551181103
 30
0.0
 40
0.0492125984251969
 50
359.999999999999
 51
180
  0
ARC
  8
1
  6
CONTINUOUS
 62
1
 10
1.39370078738479
 20
3.75590551180882
 30
0.0
 40
0.0492125984084137
 50
179.999999997427
 51
195.000000002572
  0
ARC
  8
1
  6
CONTINUOUS
 62
1
 10
1.39370078740216
 20
2.57480314960188
 30
0.0
 40
0.0492125984246151
 50
194.999999994855
 51
5.14473803054813E-9
  0
ARC
  8
1
  6
CONTINUOUS
 62
1
 10
1.39370078740157
 20
2.5748031496063
 30
0.0
 40
0.0492125984251969
 50
359.999999999999
 51
180
  0
ARC
  8
1
  6
CONTINUOUS
 62
1
 10
1.39370078738479
 20
2.57480314960409
 30
0.0
 40
0.0492125984084137
 50
179.999999997427
 51
195.000000002572
  0
ARC
  8
1
  6
CONTINUOUS
 62
1
 10
1.47270153545616
 20
2.2204724409387
 30
0.0
 40
0.0688976377721866
 50
329.999999994855
 51
5.14482708607921E-9
  0
ARC
  8
1
  6
CONTINUOUS
 62
1
 10
1.47270153543307
 20
2.22047244094489
 30
0.0
 40
0.0688976377952757
 50
359.999999999999
 51
180
  0
ARC
  8
1
  6
CONTINUOUS
 62
1
 10
1.47270153543224
 20
2.22047244094179
 30
0.0
 40
0.0688976377944469
 50
179.999999997427
 51
330.000000002572
  0
ARC
  8
1
  6
CONTINUOUS
 62
1
 10
3.59842519685805
 20
1.19685039369637
 30
0.0
 40
0.0492125984175429
 50
299.999999994854
 51
5.14420369736164E-9
  0
ARC
  8
1
  6
CONTINUOUS
 62
1
 10
3.59842519685039
 20
1.19685039370079
 30
0.0
 40
0.049212598425197
 50
359.999999999999
 51
180
  0
ARC
  8
1
  6
CONTINUOUS
 62
1
 10
3.59842519684912
 20
1.19685039369858
 30
0.0
 40
0.049212598423921
 50
179.999999997427
 51
300.000000002572
  0
ARC
  8
1
  6
CONTINUOUS
 62
1
 10
5.80341019684575
 20
2.22047244094952
 30
0.0
 40
0.0688976377906354
 50
89.9999999961415
 51
180.000000003859
  0
ARC
  8
1
  6
CONTINUOUS
 62
1
 10
5.80341019685039
 20
2.22047244094488
 30
0.0
 40
0.0688976377952755
 50
179.999999999999
 51
359.999999999999
  0
ARC
  8
1
  6
CONTINUOUS
 62
1
 10
5.80341019685503
 20
2.22047244094952
 30
0.0
 40
0.0688976377906359
 50
359.999999996141
 51
90.0000000038585
  0
ARC
  8
1
  6
CONTINUOUS
 62
1
 10
5.80341019689739
 20
6.35433070865524
 30
0.0
 40
0.0688976377482828
 50
344.999999994853
 51
5.14284241995797E-9
  0
ARC
  8
1
  6
CONTINUOUS
 62
1
 10
5.80341019685039
 20
6.35433070866142
 30
0.0
 40
0.0688976377952755
 50
359.999999999999
 51
180
  0
ARC
  8
1
  6
CONTINUOUS
 62
1
 10
5.80341019684999
 20
6.35433070865833
 30
0.0
 40
0.0688976377948679
 50
179.999999997427
 51
345.000000002572
  0
ARC
  8
1
  6
CONTINUOUS
 62
1
 10
9.93726846456456
 20
6.35433070866451
 30
0.0
 40
0.0688976377929015
 50
74.9999999974273
 51
180.000000002572
  0
ARC
  8
1
  6
CONTINUOUS
 62
1
 10
9.93726846456693
 20
6.35433070866142
 30
0.0
 40
0.068897637795275
 50
179.999999999999
 51
359.999999999999
  0
ARC
  8
1
  6
CONTINUOUS
 62
1
 10
9.93726846457499
 20
6.35433070866761
 30
0.0
 40
0.0688976377872115
 50
359.999999994854
 51
75.0000000051451
  0
ARC
  8
1
  6
CONTINUOUS
 62
1
 10
10.5275590551178
 20
8.91338582677387
 30
0.0
 40
0.0492125984249064
 50
14.9999999974281
 51
180.000000002572
  0
ARC
  8
1
  6
CONTINUOUS
 62
1
 10
10.5275590551181
 20
8.91338582677166
 30
0.0
 40
0.0492125984251972
 50
179.999999999999
 51
359.999999999999
  0
ARC
  8
1
  6
CONTINUOUS
 62
1
 10
10.5275590551517
 20
8.91338582677608
 30
0.0
 40
0.04921259839163
 50
359.999999994854
 51
15.0000000051451
  0
ARC
  8
1
  6
CONTINUOUS
 62
1
 10
10.4488188976345
 20
9.97637795275922
 30
0.0
 40
0.0492125984218829
 50
89.9999999961401
 51
180.000000003857
  0
ARC
  8
1
  6
CONTINUOUS
 62
1
 10
10.4488188976378
 20
9.97637795275591
 30
0.0
 40
0.0492125984251972
 50
179.999999999999
 51
359.999999999999
  0
ARC
  8
1
  6
CONTINUOUS
 62
1
 10
10.4488188976411
 20
9.97637795275922
 30
0.0
 40
0.049212598421882
 50
359.999999996141
 51
90.0000000038585
  0
ARC
  8
1
  6
CONTINUOUS
 62
1
 10
9.858267716569
 20
9.97637795275149
 30
0.0
 40
0.04921259839163
 50
344.999999994854
 51
5.14533597482824E-9
  0
ARC
  8
1
  6
CONTINUOUS
 62
1
 10
9.85826771653543
 20
9.97637795275591
 30
0.0
 40
0.0492125984251963
 50
359.999999999999
 51
180
  0
ARC
  8
1
  6
CONTINUOUS
 62
1
 10
9.85826771653514
 20
9.9763779527537
 30
0.0
 40
0.0492125984249055
 50
179.999999997427
 51
345.000000002571
  0
ARC
  8
1
  6
CONTINUOUS
 62
1
 10
9.93726846456565
 20
10.488188976381
 30
0.0
 40
0.0688976377939942
 50
44.9999999974272
 51
180.000000002572
  0
ARC
  8
1
  6
CONTINUOUS
 62
1
 10
9.93726846456693
 20
10.488188976378
 30
0.0
 40
0.068897637795275
 50
179.999999999999
 51
359.999999999999
  0
ARC
  8
1
  6
CONTINUOUS
 62
1
 10
9.93726846458187
 20
10.4881889763841
 30
0.0
 40
0.0688976377803385
 50
359.999999994854
 51
45.0000000051438
  0
ARC
  8
1
  6
CONTINUOUS
 62
1
 10
10.4488188976345
 20
11.1574803149639
 30
0.0
 40
0.0492125984218829
 50
89.9999999961401
 51
180.000000003857
  0
ARC
  8
1
  6
CONTINUOUS
 62
1
 10
10.4488188976378
 20
11.1574803149606
 30
0.0
 40
0.0492125984251972
 50
179.999999999999
 51
359.999999999999
  0
ARC
  8
1
  6
CONTINUOUS
 62
1
 10
10.4488188976411
 20
11.1574803149639
 30
0.0
 40
0.049212598421882
 50
359.999999996141
 51
90.0000000038585
  0
ARC
  8
1
  6
CONTINUOUS
 62
1
 10
9.85826771653212
 20
11.1574803149639
 30
0.0
 40
0.049212598421882
 50
89.9999999961411
 51
180.000000003859
  0
ARC
  8
1
  6
CONTINUOUS
 62
1
 10
9.85826771653543
 20
11.1574803149606
 30
0.0
 40
0.0492125984251963
 50
179.999999999999
 51
359.999999999999
  0
ARC
  8
1
  6
CONTINUOUS
 62
1
 10
9.85826771653875
 20
11.1574803149639
 30
0.0
 40
0.049212598421882
 50
359.999999996141
 51
90.0000000038585
  0
ARC
  8
1
  6
CONTINUOUS
 62
1
 10
7.69291338583009
 20
11.1574803149573
 30
0.0
 40
0.0492125984218829
 50
269.999999996142
 51
3.85954585597171E-9
  0
ARC
  8
1
  6
CONTINUOUS
 62
1
 10
7.69291338582677
 20
11.1574803149606
 30
0.0
 40
0.0492125984251968
 50
359.999999999999
 51
180
  0
ARC
  8
1
  6
CONTINUOUS
 62
1
 10
7.69291338582346
 20
11.1574803149573
 30
0.0
 40
0.0492125984218833
 50
179.99999999614
 51
270.000000003858
  0
ARC
  8
1
  6
CONTINUOUS
 62
1
 10
8.28346456692972
 20
11.1574803149562
 30
0.0
 40
0.0492125984246146
 50
194.999999994855
 51
5.14475075276685E-9
  0
ARC
  8
1
  6
CONTINUOUS
 62
1
 10
8.28346456692913
 20
11.1574803149606
 30
0.0
 40
0.0492125984251963
 50
359.999999999999
 51
180
  0
ARC
  8
1
  6
CONTINUOUS
 62
1
 10
8.28346456691235
 20
11.1574803149584
 30
0.0
 40
0.0492125984084133
 50
179.999999997426
 51
195.000000002572
  0
ARC
  8
1
  6
CONTINUOUS
 62
1
 10
8.28346456692582
 20
9.97637795275922
 30
0.0
 40
0.049212598421882
 50
89.9999999961411
 51
180.000000003859
  0
ARC
  8
1
  6
CONTINUOUS
 62
1
 10
8.28346456692913
 20
9.97637795275591
 30
0.0
 40
0.0492125984251963
 50
179.999999999999
 51
359.999999999999
  0
ARC
  8
1
  6
CONTINUOUS
 62
1
 10
8.28346456693245
 20
9.97637795275922
 30
0.0
 40
0.049212598421882
 50
359.999999996141
 51
90.0000000038585
  0
ARC
  8
1
  6
CONTINUOUS
 62
1
 10
7.69291338582346
 20
9.97637795275922
 30
0.0
 40
0.0492125984218824
 50
89.9999999961406
 51
180.000000003858
  0
ARC
  8
1
  6
CONTINUOUS
 62
1
 10
7.69291338582677
 20
9.97637795275591
 30
0.0
 40
0.0492125984251968
 50
179.999999999999
 51
359.999999999999
  0
ARC
  8
1
  6
CONTINUOUS
 62
1
 10
7.69291338583009
 20
9.97637795275922
 30
0.0
 40
0.049212598421882
 50
359.999999996141
 51
90.0000000038585
  0
ARC
  8
1
  6
CONTINUOUS
 62
1
 10
6.11811023621716
 20
9.97637795275922
 30
0.0
 40
0.049212598421882
 50
89.9999999961411
 51
180.000000003859
  0
ARC
  8
1
  6
CONTINUOUS
 62
1
 10
6.11811023622047
 20
9.97637795275591
 30
0.0
 40
0.0492125984251968
 50
179.999999999999
 51
359.999999999999
  0
ARC
  8
1
  6
CONTINUOUS
 62
1
 10
6.11811023622379
 20
9.97637795275922
 30
0.0
 40
0.0492125984218824
 50
359.999999996141
 51
90.000000003859
  0
ARC
  8
1
  6
CONTINUOUS
 62
1
 10
5.5275590551346
 20
9.97637795275149
 30
0.0
 40
0.0492125984087048
 50
329.999999994854
 51
5.14402558629948E-9
  0
ARC
  8
1
  6
CONTINUOUS
 62
1
 10
5.52755905511811
 20
9.97637795275591
 30
0.0
 40
0.0492125984251972
 50
359.999999999999
 51
180
  0
ARC
  8
1
  6
CONTINUOUS
 62
1
 10
5.52755905511752
 20
9.9763779527537
 30
0.0
 40
0.049212598424605
 50
179.999999997427
 51
330.000000002572
  0
ARC
  8
1
  6
CONTINUOUS
 62
1
 10
5.80341019684861
 20
10.488188976381
 30
0.0
 40
0.0688976377934894
 50
59.9999999974274
 51
180.000000002572
  0
ARC
  8
1
  6
CONTINUOUS
 62
1
 10
5.80341019685039
 20
10.488188976378
 30
0.0
 40
0.0688976377952755
 50
179.999999999999
 51
359.999999999999
  0
ARC
  8
1
  6
CONTINUOUS
 62
1
 10
5.80341019686111
 20
10.4881889763841
 30
0.0
 40
0.0688976377845601
 50
359.999999994855
 51
60.0000000051448
  0
ARC
  8
1
  6
CONTINUOUS
 62
1
 10
6.11811023621716
 20
11.1574803149639
 30
0.0
 40
0.0492125984218829
 50
89.9999999961421
 51
180.00000000386
  0
ARC
  8
1
  6
CONTINUOUS
 62
1
 10
6.11811023622047
 20
11.1574803149606
 30
0.0
 40
0.0492125984251968
 50
179.999999999999
 51
359.999999999999
  0
ARC
  8
1
  6
CONTINUOUS
 62
1
 10
6.11811023622379
 20
11.1574803149639
 30
0.0
 40
0.0492125984218833
 50
359.99999999614
 51
90.000000003858
  0
ARC
  8
1
  6
CONTINUOUS
 62
1
 10
5.5275590551148
 20
11.1574803149639
 30
0.0
 40
0.0492125984218833
 50
89.9999999961416
 51
180.000000003859
  0
ARC
  8
1
  6
CONTINUOUS
 62
1
 10
5.52755905511811
 20
11.1574803149606
 30
0.0
 40
0.0492125984251972
 50
179.999999999999
 51
359.999999999999
  0
ARC
  8
1
  6
CONTINUOUS
 62
1
 10
5.52755905512142
 20
11.1574803149639
 30
0.0
 40
0.0492125984218833
 50
359.99999999614
 51
90.000000003858
  0
ARC
  8
1
  6
CONTINUOUS
 62
1
 10
3.36220472441276
 20
11.1574803149573
 30
0.0
 40
0.0492125984218831
 50
269.999999996141
 51
3.85928505048783E-9
  0
ARC
  8
1
  6
CONTINUOUS
 62
1
 10
3.36220472440945
 20
11.1574803149606
 30
0.0
 40
0.049212598425197
 50
359.999999999999
 51
180
  0
ARC
  8
1
  6
CONTINUOUS
 62
1
 10
3.36220472440614
 20
11.1574803149573
 30
0.0
 40
0.0492125984218833
 50
179.99999999614
 51
270.000000003858
  0
ARC
  8
1
  6
CONTINUOUS
 62
1
 10
3.95275590551239
 20
11.1574803149562
 30
0.0
 40
0.0492125984246148
 50
194.999999994855
 51
5.14478891942303E-9
  0
ARC
  8
1
  6
CONTINUOUS
 62
1
 10
3.95275590551181
 20
11.1574803149606
 30
0.0
 40
0.0492125984251965
 50
359.999999999999
 51
180
  0
ARC
  8
1
  6
CONTINUOUS
 62
1
 10
3.95275590549503
 20
11.1574803149584
 30
0.0
 40
0.0492125984084136
 50
179.999999997426
 51
195.000000002572
  0
ARC
  8
1
  6
CONTINUOUS
 62
1
 10
3.9527559055085
 20
9.97637795275922
 30
0.0
 40
0.0492125984218822
 50
89.9999999961408
 51
180.000000003858
  0
ARC
  8
1
  6
CONTINUOUS
 62
1
 10
3.95275590551181
 20
9.97637795275591
 30
0.0
 40
0.0492125984251965
 50
179.999999999999
 51
359.999999999999
  0
ARC
  8
1
  6
CONTINUOUS
 62
1
 10
3.95275590551513
 20
9.97637795275922
 30
0.0
 40
0.049212598421882
 50
359.999999996141
 51
90.0000000038585
  0
ARC
  8
1
  6
CONTINUOUS
 62
1
 10
3.36220472441003
 20
9.97637795275149
 30
0.0
 40
0.0492125984246153
 50
194.999999994855
 51
5.14476347498558E-9
  0
ARC
  8
1
  6
CONTINUOUS
 62
1
 10
3.36220472440945
 20
9.97637795275591
 30
0.0
 40
0.049212598425197
 50
359.999999999999
 51
180
  0
ARC
  8
1
  6
CONTINUOUS
 62
1
 10
3.36220472439267
 20
9.9763779527537
 30
0.0
 40
0.0492125984084139
 50
179.999999997426
 51
195.000000002572
  0
ARC
  8
1
  6
CONTINUOUS
 62
1
 10
3.59842519684751
 20
8.91338582677387
 30
0.0
 40
0.0492125984223179
 50
104.999999997428
 51
180.000000002573
  0
ARC
  8
1
  6
CONTINUOUS
 62
1
 10
3.59842519685039
 20
8.91338582677166
 30
0.0
 40
0.049212598425197
 50
179.999999999999
 51
359.999999999999
  0
ARC
  8
1
  6
CONTINUOUS
 62
1
 10
3.59842519685378
 20
8.91338582677608
 30
0.0
 40
0.0492125984218067
 50
359.999999994854
 51
105.000000005144
  0
ARC
  8
1
  6
CONTINUOUS
 62
1
 10
2.54527559052903
 20
8.55905511811316
 30
0.0
 40
0.0649606298991065
 50
164.999999997428
 51
180.000000002573
  0
ARC
  8
1
  6
CONTINUOUS
 62
1
 10
2.54527559055118
 20
8.55905511811024
 30
0.0
 40
0.0649606299212602
 50
179.999999999999
 51
359.999999999999
  0
ARC
  8
1
  6
CONTINUOUS
 62
1
 10
2.54527559055195
 20
8.55905511811607
 30
0.0
 40
0.0649606299204924
 50
359.999999994854
 51
165.000000005144
  0
ARC
  8
1
  6
CONTINUOUS
 62
1
 10
1.81692913385447
 20
8.55905511811316
 30
0.0
 40
0.0649606299174589
 50
104.999999997427
 51
180.000000002572
  0
ARC
  8
1
  6
CONTINUOUS
 62
1
 10
1.81692913385827
 20
8.55905511811024
 30
0.0
 40
0.0649606299212601
 50
179.999999999999
 51
359.999999999999
  0
ARC
  8
1
  6
CONTINUOUS
 62
1
 10
1.81692913386274
 20
8.55905511811607
 30
0.0
 40
0.064960629916784
 50
359.999999994855
 51
105.000000005145
  0
ARC
  8
1
  6
CONTINUOUS
 62
1
 10
1.1968503937041
 20
9.97637795275259
 30
0.0
 40
0.0492125984218822
 50
269.999999996141
 51
3.85825455077104E-9
  0
ARC
  8
1
  6
CONTINUOUS
 62
1
 10
1.19685039370079
 20
9.97637795275591
 30
0.0
 40
0.0492125984251969
 50
359.999999999999
 51
180
  0
ARC
  8
1
  6
CONTINUOUS
 62
1
 10
1.19685039369747
 20
9.97637795275259
 30
0.0
 40
0.0492125984218823
 50
179.999999996141
 51
270.000000003859
  0
ARC
  8
1
  6
CONTINUOUS
 62
1
 10
2.18110236220141
 20
9.97637795275922
 30
0.0
 40
0.0492125984218822
 50
89.9999999961408
 51
180.000000003858
  0
ARC
  8
1
  6
CONTINUOUS
 62
1
 10
2.18110236220472
 20
9.97637795275591
 30
0.0
 40
0.049212598425197
 50
179.999999999999
 51
359.999999999999
  0
ARC
  8
1
  6
CONTINUOUS
 62
1
 10
2.18110236220804
 20
9.97637795275922
 30
0.0
 40
0.0492125984218824
 50
359.999999996141
 51
90.000000003859
  0
ARC
  8
1
  6
CONTINUOUS
 62
1
 10
1.78740157480256
 20
9.97637795275812
 30
0.0
 40
0.0492125984246047
 50
29.9999999974271
 51
180.000000002572
  0
ARC
  8
1
  6
CONTINUOUS
 62
1
 10
1.78740157480315
 20
9.97637795275591
 30
0.0
 40
0.0492125984251968
 50
179.999999999999
 51
359.999999999999
  0
ARC
  8
1
  6
CONTINUOUS
 62
1
 10
1.78740157481964
 20
9.97637795276033
 30
0.0
 40
0.0492125984087045
 50
359.999999994855
 51
30.0000000051446
  0
ARC
  8
1
  6
CONTINUOUS
 62
1
 10
1.47270153543224
 20
10.488188976381
 30
0.0
 40
0.0688976377944466
 50
29.9999999974267
 51
180.000000002572
  0
ARC
  8
1
  6
CONTINUOUS
 62
1
 10
1.47270153543307
 20
10.488188976378
 30
0.0
 40
0.0688976377952757
 50
179.999999999999
 51
359.999999999999
  0
ARC
  8
1
  6
CONTINUOUS
 62
1
 10
1.47270153545616
 20
10.4881889763841
 30
0.0
 40
0.0688976377721863
 50
359.999999994855
 51
30.0000000051448
  0
ARC
  8
1
  6
CONTINUOUS
 62
1
 10
2.18110236220141
 20
11.1574803149639
 30
0.0
 40
0.0492125984218831
 50
89.9999999961419
 51
180.000000003859
  0
ARC
  8
1
  6
CONTINUOUS
 62
1
 10
2.18110236220472
 20
11.1574803149606
 30
0.0
 40
0.049212598425197
 50
179.999999999999
 51
359.999999999999
  0
ARC
  8
1
  6
CONTINUOUS
 62
1
 10
2.18110236220804
 20
11.1574803149639
 30
0.0
 40
0.0492125984218833
 50
359.99999999614
 51
90.000000003858
  0
ARC
  8
1
  6
CONTINUOUS
 62
1
 10
1.78740157479983
 20
11.1574803149639
 30
0.0
 40
0.0492125984218822
 50
89.9999999961408
 51
180.000000003858
  0
ARC
  8
1
  6
CONTINUOUS
 62
1
 10
1.78740157480315
 20
11.1574803149606
 30
0.0
 40
0.0492125984251968
 50
179.999999999999
 51
359.999999999999
  0
ARC
  8
1
  6
CONTINUOUS
 62
1
 10
1.78740157480646
 20
11.1574803149639
 30
0.0
 40
0.0492125984218822
 50
359.999999996141
 51
90.0000000038588
  0
ARC
  8
1
  6
CONTINUOUS
 62
1
 10
1.19685039369951
 20
11.1574803149628
 30
0.0
 40
0.0492125984239209
 50
59.9999999974267
 51
180.000000002572
  0
ARC
  8
1
  6
CONTINUOUS
 62
1
 10
1.19685039370079
 20
11.1574803149606
 30
0.0
 40
0.0492125984251969
 50
179.999999999999
 51
359.999999999999
  0
ARC
  8
1
  6
CONTINUOUS
 62
1
 10
1.19685039370844
 20
11.1574803149651
 30
0.0
 40
0.0492125984175424
 50
359.999999994855
 51
60.0000000051449
  0
LINE
  8
1
  6
CONTINUOUS
 62
1
 10
1
 20
11.3543307086614
 30
0.0
 11
10.7244094488189
 21
11.3543307086614
 31
0.0
  0
LINE
  8
1
  6
CONTINUOUS
 62
1
 10
10.7244094488189
 20
11.3543307086614
 30
0.0
 11
10.7244094488189
 21
1.19685039370079
 31
0.0
  0
ARC
  8
1
  6
CONTINUOUS
 62
1
 10
10.5275590551181
 20
1.19685039370079
 30
0.0
 40
0.196850393700788
 50
180
 51
1.53511459547513E-13
  0
LINE
  8
1
  6
CONTINUOUS
 62
1
 10
10.3307086614173
 20
1.19685039370079
 30
0.0
 11
10.3307086614173
 21
1.39370078740158
 31
0.0
  0
LINE
  8
1
  6
CONTINUOUS
 62
1
 10
10.3307086614173
 20
1.39370078740158
 30
0.0
 11
3.79527559055118
 21
1.39370078740158
 31
0.0
  0
LINE
  8
1
  6
CONTINUOUS
 62
1
 10
3.79527559055118
 20
1.39370078740158
 30
0.0
 11
3.79527559055118
 21
1.19685039370079
 31
0.0
  0
ARC
  8
1
  6
CONTINUOUS
 62
1
 10
3.59842519685039
 20
1.19685039370079
 30
0.0
 40
0.196850393700787
 50
180
 51
1.53511459547513E-13
  0
LINE
  8
1
  6
CONTINUOUS
 62
1
 10
3.40157480314961
 20
1.19685039370079
 30
0.0
 11
3.40157480314961
 21
1.39370078740158
 31
0.0
  0
LINE
  8
1
  6
CONTINUOUS
 62
1
 10
3.40157480314961
 20
1.39370078740158
 30
0.0
 11
1
 21
1.39370078740158
 31
0.0
  0
LINE
  8
1
  6
CONTINUOUS
 62
1
 10
1
 20
1.39370078740158
 30
0.0
 11
1
 21
11.3543307086614
 31
0.0
  0
LINE
  8
9
  6
CONTINUOUS
 62
9
 10
10.5286729310025
 20
1.1950147830538
 30
0.0
 11
10.5701784155406
 21
1.22145669291339
 31
0.0
  0
LINE
  8
9
  6
CONTINUOUS
 62
9
 10
10.5701784155406
 20
1.22145669291339
 30
0.0
 11
10.5265263076086
 21
1.19873284383686
 31
0.0
  0
LINE
  8
9
  6
CONTINUOUS
 62
9
 10
9.93871431108028
 20
2.22310787113538
 30
0.0
 11
9.87760135997548
 21
2.25492125984252
 31
0.0
  0
LINE
  8
9
  6
CONTINUOUS
 62
9
 10
9.87760135997548
 20
2.25492125984252
 30
0.0
 11
9.91977093226613
 21
2.22805627942518
 31
0.0
  0
LINE
  8
9
  6
CONTINUOUS
 62
9
 10
1.46978169273473
 20
6.35504518962418
 30
0.0
 11
1.45486951460908
 21
6.28778070094465
 31
0.0
  0
LINE
  8
9
  6
CONTINUOUS
 62
9
 10
1.45486951460908
 20
6.28778070094465
 30
0.0
 11
1.46990480458429
 21
6.33546654848207
 31
0.0
  0
LINE
  8
9
  6
CONTINUOUS
 62
9
 10
1.39309995691236
 20
3.75796686783473
 30
0.0
 11
1.34616506760388
 21
3.7431683540796
 31
0.0
  0
LINE
  8
9
  6
CONTINUOUS
 62
9
 10
1.34616506760388
 20
3.7431683540796
 30
0.0
 11
1.3942111309464
 21
3.75381990988364
 31
0.0
  0
LINE
  8
9
  6
CONTINUOUS
 62
9
 10
1.39309995691236
 20
2.57686450563001
 30
0.0
 11
1.34616506760388
 21
2.56206599187488
 31
0.0
  0
LINE
  8
9
  6
CONTINUOUS
 62
9
 10
1.34616506760388
 20
2.56206599187488
 30
0.0
 11
1.3942111309464
 21
2.57271754767892
 31
0.0
  0
LINE
  8
9
  6
CONTINUOUS
 62
9
 10
1.47125568891972
 20
2.21783701075438
 30
0.0
 11
1.53236864002452
 21
2.18602362204725
 31
0.0
  0
LINE
  8
9
  6
CONTINUOUS
 62
9
 10
1.53236864002452
 20
2.18602362204725
 30
0.0
 11
1.49019906773387
 21
2.21288860246459
 31
0.0
  0
LINE
  8
9
  6
CONTINUOUS
 62
9
 10
3.5965895862034
 20
1.19573651781636
 30
0.0
 11
3.62303149606299
 21
1.15423103327833
 31
0.0
  0
LINE
  8
9
  6
CONTINUOUS
 62
9
 10
3.62303149606299
 20
1.15423103327833
 30
0.0
 11
3.60030764698646
 21
1.19788314121033
 31
0.0
  0
LINE
  8
9
  6
CONTINUOUS
 62
9
 10
5.80641546960194
 20
2.2205380162296
 30
0.0
 11
5.80341019685039
 21
2.28937007874016
 31
0.0
  0
LINE
  8
9
  6
CONTINUOUS
 62
9
 10
5.80341019685039
 20
2.28937007874016
 30
0.0
 11
5.80122922748213
 21
2.23941766766107
 31
0.0
  0
LINE
  8
9
  6
CONTINUOUS
 62
9
 10
5.80269571588764
 20
6.35141086596308
 30
0.0
 11
5.86996020456716
 21
6.33649868783743
 31
0.0
  0
LINE
  8
9
  6
CONTINUOUS
 62
9
 10
5.86996020456716
 20
6.33649868783743
 30
0.0
 11
5.82227435702975
 21
6.35153397781264
 31
0.0
  0
LINE
  8
9
  6
CONTINUOUS
 62
9
 10
9.94018830726527
 20
6.35361622769866
 30
0.0
 11
9.95510048539092
 21
6.42088071637819
 31
0.0
  0
LINE
  8
9
  6
CONTINUOUS
 62
9
 10
9.95510048539092
 20
6.42088071637819
 30
0.0
 11
9.94006519541571
 21
6.37319486884077
 31
0.0
  0
LINE
  8
9
  6
CONTINUOUS
 62
9
 10
10.5281598856073
 20
8.91132447074795
 30
0.0
 11
10.5750947749158
 21
8.92612298450308
 31
0.0
  0
LINE
  8
9
  6
CONTINUOUS
 62
9
 10
10.5750947749158
 20
8.92612298450308
 30
0.0
 11
10.5270487115733
 21
8.91547142869904
 31
0.0
  0
LINE
  8
9
  6
CONTINUOUS
 62
9
 10
10.4509655210318
 20
9.97642479224499
 30
0.0
 11
10.4488188976378
 21
10.0255905511811
 31
0.0
  0
LINE
  8
9
  6
CONTINUOUS
 62
9
 10
10.4488188976378
 20
10.0255905511811
 30
0.0
 11
10.4466722742438
 21
9.97642479224499
 31
0.0
  0
LINE
  8
9
  6
CONTINUOUS
 62
9
 10
9.85775737299061
 20
9.97429235082853
 30
0.0
 11
9.90580343633312
 21
9.96364079502448
 31
0.0
  0
LINE
  8
9
  6
CONTINUOUS
 62
9
 10
9.90580343633312
 20
9.96364079502448
 30
0.0
 11
9.85886854702465
 21
9.97843930877962
 31
0.0
  0
LINE
  8
9
  6
CONTINUOUS
 62
9
 10
9.93943988203736
 20
10.4861102963645
 30
0.0
 11
9.9859864514597
 21
10.5369069632707
 31
0.0
  0
LINE
  8
9
  6
CONTINUOUS
 62
9
 10
9.9859864514597
 20
10.5369069632707
 30
0.0
 11
9.9491225846192
 21
10.5031274528899
 31
0.0
  0
LINE
  8
9
  6
CONTINUOUS
 62
9
 10
10.4509655210318
 20
11.1575271544497
 30
0.0
 11
10.4488188976378
 21
11.2066929133858
 31
0.0
  0
LINE
  8
9
  6
CONTINUOUS
 62
9
 10
10.4488188976378
 20
11.2066929133858
 30
0.0
 11
10.4466722742438
 21
11.1575271544497
 31
0.0
  0
LINE
  8
9
  6
CONTINUOUS
 62
9
 10
9.8604143399294
 20
11.1575271544497
 30
0.0
 11
9.85826771653543
 21
11.2066929133858
 31
0.0
  0
LINE
  8
9
  6
CONTINUOUS
 62
9
 10
9.85826771653543
 20
11.2066929133858
 30
0.0
 11
9.85612109314147
 21
11.1575271544497
 31
0.0
  0
LINE
  8
9
  6
CONTINUOUS
 62
9
 10
7.69076676243281
 20
11.1574334754715
 30
0.0
 11
7.69291338582677
 21
11.1082677165354
 31
0.0
  0
LINE
  8
9
  6
CONTINUOUS
 62
9
 10
7.69291338582677
 20
11.1082677165354
 30
0.0
 11
7.69506000922074
 21
11.1574334754715
 31
0.0
  0
LINE
  8
9
  6
CONTINUOUS
 62
9
 10
8.28286373643992
 20
11.1595416709843
 30
0.0
 11
8.23592884713144
 21
11.1447431572292
 31
0.0
  0
LINE
  8
9
  6
CONTINUOUS
 62
9
 10
8.23592884713144
 20
11.1447431572292
 30
0.0
 11
8.28397491047396
 21
11.1553947130332
 31
0.0
  0
LINE
  8
9
  6
CONTINUOUS
 62
9
 10
8.2856111903231
 20
9.97642479224499
 30
0.0
 11
8.28346456692913
 21
10.0255905511811
 31
0.0
  0
LINE
  8
9
  6
CONTINUOUS
 62
9
 10
8.28346456692913
 20
10.0255905511811
 30
0.0
 11
8.28131794353517
 21
9.97642479224499
 31
0.0
  0
LINE
  8
9
  6
CONTINUOUS
 62
9
 10
7.69506000922074
 20
9.97642479224499
 30
0.0
 11
7.69291338582677
 21
10.0255905511811
 31
0.0
  0
LINE
  8
9
  6
CONTINUOUS
 62
9
 10
7.69291338582677
 20
10.0255905511811
 30
0.0
 11
7.69076676243281
 21
9.97642479224499
 31
0.0
  0
LINE
  8
9
  6
CONTINUOUS
 62
9
 10
6.12025685961444
 20
9.97642479224499
 30
0.0
 11
6.11811023622047
 21
10.0255905511811
 31
0.0
  0
LINE
  8
9
  6
CONTINUOUS
 62
9
 10
6.11811023622047
 20
10.0255905511811
 30
0.0
 11
6.11596361282651
 21
9.97642479224499
 31
0.0
  0
LINE
  8
9
  6
CONTINUOUS
 62
9
 10
5.52652630760857
 20
9.97449550261984
 30
0.0
 11
5.57017841554057
 21
9.95177165354331
 31
0.0
  0
LINE
  8
9
  6
CONTINUOUS
 62
9
 10
5.57017841554057
 20
9.95177165354331
 30
0.0
 11
5.52867293100254
 21
9.9782135634029
 31
0.0
  0
LINE
  8
9
  6
CONTINUOUS
 62
9
 10
5.80604562704089
 20
10.4867431298646
 30
0.0
 11
5.83785901574803
 21
10.5478560809694
 31
0.0
  0
LINE
  8
9
  6
CONTINUOUS
 62
9
 10
5.83785901574803
 20
10.5478560809694
 30
0.0
 11
5.81099403533069
 21
10.5056865086788
 31
0.0
  0
LINE
  8
9
  6
CONTINUOUS
 62
9
 10
6.12025685961444
 20
11.1575271544497
 30
0.0
 11
6.11811023622047
 21
11.2066929133858
 31
0.0
  0
LINE
  8
9
  6
CONTINUOUS
 62
9
 10
6.11811023622047
 20
11.2066929133858
 30
0.0
 11
6.11596361282651
 21
11.1575271544497
 31
0.0
  0
LINE
  8
9
  6
CONTINUOUS
 62
9
 10
5.52970567851207
 20
11.1575271544497
 30
0.0
 11
5.52755905511811
 21
11.2066929133858
 31
0.0
  0
LINE
  8
9
  6
CONTINUOUS
 62
9
 10
5.52755905511811
 20
11.2066929133858
 30
0.0
 11
5.52541243172415
 21
11.1575271544497
 31
0.0
  0
LINE
  8
9
  6
CONTINUOUS
 62
9
 10
3.36005810101549
 20
11.1574334754715
 30
0.0
 11
3.36220472440945
 21
11.1082677165354
 31
0.0
  0
LINE
  8
9
  6
CONTINUOUS
 62
9
 10
3.36220472440945
 20
11.1082677165354
 30
0.0
 11
3.36435134780341
 21
11.1574334754715
 31
0.0
  0
LINE
  8
9
  6
CONTINUOUS
 62
9
 10
3.9521550750226
 20
11.1595416709843
 30
0.0
 11
3.90522018571412
 21
11.1447431572292
 31
0.0
  0
LINE
  8
9
  6
CONTINUOUS
 62
9
 10
3.90522018571412
 20
11.1447431572292
 30
0.0
 11
3.95326624905664
 21
11.1553947130332
 31
0.0
  0
LINE
  8
9
  6
CONTINUOUS
 62
9
 10
3.95490252890577
 20
9.97642479224499
 30
0.0
 11
3.95275590551181
 21
10.0255905511811
 31
0.0
  0
LINE
  8
9
  6
CONTINUOUS
 62
9
 10
3.95275590551181
 20
10.0255905511811
 30
0.0
 11
3.95060928211785
 21
9.97642479224499
 31
0.0
  0
LINE
  8
9
  6
CONTINUOUS
 62
9
 10
3.36160389392023
 20
9.97843930877962
 30
0.0
 11
3.31466900461176
 21
9.96364079502448
 31
0.0
  0
LINE
  8
9
  6
CONTINUOUS
 62
9
 10
3.31466900461176
 20
9.96364079502448
 30
0.0
 11
3.36271506795427
 21
9.97429235082853
 31
0.0
  0
LINE
  8
9
  6
CONTINUOUS
 62
9
 10
3.6004865528741
 20
8.91398665726087
 30
0.0
 11
3.58568803911897
 21
8.96092154656935
 31
0.0
  0
LINE
  8
9
  6
CONTINUOUS
 62
9
 10
3.58568803911897
 20
8.96092154656935
 30
0.0
 11
3.59633959492301
 21
8.91287548322683
 31
0.0
  0
LINE
  8
9
  6
CONTINUOUS
 62
9
 10
2.54594924403035
 20
8.56180811265438
 30
0.0
 11
2.48252844041823
 21
8.57586816631572
 31
0.0
  0
LINE
  8
9
  6
CONTINUOUS
 62
9
 10
2.48252844041823
 20
8.57586816631572
 30
0.0
 11
2.53021428795564
 21
8.5608328763405
 31
0.0
  0
LINE
  8
9
  6
CONTINUOUS
 62
9
 10
1.81965012380956
 20
8.559848214356
 30
0.0
 11
1.80011608565279
 21
8.62180226824319
 31
0.0
  0
LINE
  8
9
  6
CONTINUOUS
 62
9
 10
1.80011608565279
 20
8.62180226824319
 30
0.0
 11
1.81093806634969
 21
8.57298746788719
 31
0.0
  0
LINE
  8
9
  6
CONTINUOUS
 62
9
 10
1.19470377030682
 20
9.97633111326683
 30
0.0
 11
1.19685039370079
 21
9.92716535433071
 31
0.0
  0
LINE
  8
9
  6
CONTINUOUS
 62
9
 10
1.19685039370079
 20
9.92716535433071
 30
0.0
 11
1.19899701709475
 21
9.97633111326683
 31
0.0
  0
LINE
  8
9
  6
CONTINUOUS
 62
9
 10
2.18324898559869
 20
9.97642479224499
 30
0.0
 11
2.18110236220472
 21
10.0255905511811
 31
0.0
  0
LINE
  8
9
  6
CONTINUOUS
 62
9
 10
2.18110236220472
 20
10.0255905511811
 30
0.0
 11
2.17895573881076
 21
9.97642479224499
 31
0.0
  0
LINE
  8
9
  6
CONTINUOUS
 62
9
 10
1.78851545068758
 20
9.97454234210892
 30
0.0
 11
1.83002093522561
 21
10.0009842519685
 31
0.0
  0
LINE
  8
9
  6
CONTINUOUS
 62
9
 10
1.83002093522561
 20
10.0009842519685
 30
0.0
 11
1.78636882729361
 21
9.97826040289198
 31
0.0
  0
LINE
  8
9
  6
CONTINUOUS
 62
9
 10
1.47426096167127
 20
10.4856191214722
 30
0.0
 11
1.53236864002452
 21
10.5226377952756
 31
0.0
  0
LINE
  8
9
  6
CONTINUOUS
 62
9
 10
1.53236864002452
 20
10.5226377952756
 30
0.0
 11
1.48801809836561
 21
10.4995503646138
 31
0.0
  0
LINE
  8
9
  6
CONTINUOUS
 62
9
 10
2.18324898559869
 20
11.1575271544497
 30
0.0
 11
2.18110236220472
 21
11.2066929133858
 31
0.0
  0
LINE
  8
9
  6
CONTINUOUS
 62
9
 10
2.18110236220472
 20
11.2066929133858
 30
0.0
 11
2.17895573881076
 21
11.1575271544497
 31
0.0
  0
LINE
  8
9
  6
CONTINUOUS
 62
9
 10
1.78954819819711
 20
11.1575271544497
 30
0.0
 11
1.78740157480315
 21
11.2066929133858
 31
0.0
  0
LINE
  8
9
  6
CONTINUOUS
 62
9
 10
1.78740157480315
 20
11.2066929133858
 30
0.0
 11
1.78525495140919
 21
11.1575271544497
 31
0.0
  0
LINE
  8
9
  6
CONTINUOUS
 62
9
 10
1.19873284383686
 20
11.1564475674511
 30
0.0
 11
1.22145669291339
 21
11.2000996753831
 31
0.0
  0
LINE
  8
9
  6
CONTINUOUS
 62
9
 10
1.22145669291339
 20
11.2000996753831
 30
0.0
 11
1.1950147830538
 21
11.1585941908451
 31
0.0
  0
LINE
  8
9
  6
CONTINUOUS
 62
9
 10
0.85
 20
11.3543307086614
 30
0.0
 11
1
 21
11.3543307086614
 31
0.0
  0
LINE
  8
9
  6
CONTINUOUS
 62
9
 10
1
 20
11.3543307086614
 30
0.0
 11
1
 21
11.4043307086614
 31
0.0
  0
ENDSEC
  0
EOF
