  0
SECTION
  2
HEADER
  9
$ACADVER
  1
AC1003
  9
$EXTMIN
 10
0.875466074722383
 20
3.10787401574803
  9
$EXTMAX
 10
2.0236220472441
 20
0.85
  9
$INSUNITS
 70
1
  9
$INSBASE
 10
1.44954406098324
 20
1.97893700787402
999
Created with OMAX LAYOUT for Windows. (www.omax.com) 17-06-2026
  0
ENDSEC
  0
SECTION
  2
TABLES
  0
TABLE
  2
LAYER
 70
    10
  0
LAYER
  2
0
 70
     0
 62
     7
  6
CONTINUOUS
  0
LAYER
  2
1
 70
     0
 62
     7
  6
CONTINUOUS
  0
LAYER
  2
2
 70
     0
 62
     7
  6
CONTINUOUS
  0
LAYER
  2
3
 70
     0
 62
     7
  6
CONTINUOUS
  0
LAYER
  2
4
 70
     0
 62
     7
  6
CONTINUOUS
  0
LAYER
  2
5
 70
     0
 62
     7
  6
CONTINUOUS
  0
LAYER
  2
6
 70
     0
 62
     7
  6
CONTINUOUS
  0
LAYER
  2
7
 70
     0
 62
     7
  6
CONTINUOUS
  0
LAYER
  2
8
 70
     0
 62
     7
  6
CONTINUOUS
  0
LAYER
  2
9
 70
     0
 62
     7
  6
CONTINUOUS
  0
LAYER
  2
10
 70
     0
 62
     7
  6
CONTINUOUS
  0
LAYER
  2
11
 70
     0
 62
     7
  6
CONTINUOUS
  0
LAYER
  2
12
 70
     0
 62
     7
  6
CONTINUOUS
  0
LAYER
  2
13
 70
     0
 62
     7
  6
CONTINUOUS
  0
LAYER
  2
14
 70
     0
 62
     7
  6
CONTINUOUS
  0
LAYER
  2
15
 70
     0
 62
     7
  6
CONTINUOUS
  0
LAYER
  2
16
 70
     0
 62
     7
  6
CONTINUOUS
  0
LAYER
  2
17
 70
     0
 62
     7
  6
CONTINUOUS
  0
LAYER
  2
18
 70
     0
 62
     7
  6
CONTINUOUS
  0
LAYER
  2
19
 70
     0
 62
     7
  6
CONTINUOUS
  0
LAYER
  2
20
 70
     0
 62
     7
  6
CONTINUOUS
  0
LAYER
  2
21
 70
     0
 62
     7
  6
CONTINUOUS
  0
LAYER
  2
22
 70
     0
 62
     7
  6
CONTINUOUS
  0
LAYER
  2
23
 70
     0
 62
     7
  6
CONTINUOUS
  0
LAYER
  2
24
 70
     0
 62
     7
  6
CONTINUOUS
  0
LAYER
  2
25
 70
     0
 62
     7
  6
CONTINUOUS
  0
LAYER
  2
26
 70
     0
 62
     7
  6
CONTINUOUS
  0
LAYER
  2
27
 70
     0
 62
     7
  6
CONTINUOUS
  0
LAYER
  2
28
 70
     0
 62
     7
  6
CONTINUOUS
  0
LAYER
  2
29
 70
     0
 62
     7
  6
CONTINUOUS
  0
LAYER
  2
30
 70
     0
 62
     7
  6
CONTINUOUS
  0
LAYER
  2
31
 70
     0
 62
     7
  6
CONTINUOUS
  0
ENDTAB
  0
ENDSEC
  0
SECTION
  2
ENTITIES
  0
LINE
  8
0
  6
CONTINUOUS
 62
0
 10
1.00011166477588
 20
0.85
 30
0.0
 11
1.86685621324622
 21
1.5934710238007
 31
0.0
  0
LINE
  8
0
  6
CONTINUOUS
 62
0
 10
1.84727757210411
 20
1.59334791195114
 30
0.0
 11
1.51334205425653
 21
1.59680798688451
 31
0.0
  0
LINE
  8
0
  6
CONTINUOUS
 62
0
 10
1.41688971176639
 20
1.61372736432142
 30
0.0
 11
1.16011574515113
 21
1.58910533458901
 31
0.0
  0
LINE
  8
0
  6
CONTINUOUS
 62
0
 10
1.16506415344093
 20
1.60804871340317
 30
0.0
 11
1.48313860860193
 21
2.49307609564538
 31
0.0
  0
LINE
  8
0
  6
CONTINUOUS
 62
0
 10
1.46570795648643
 20
2.3943175421148
 30
0.0
 11
1.11811023622047
 21
0.85
 31
0.0
  0
LINE
  8
0
  6
CONTINUOUS
 62
0
 10
1.06811023622047
 20
1
 30
0.0
 11
0.993643155411571
 21
0.984693539153771
 31
0.0
  0
LINE
  8
0
  6
CONTINUOUS
 62
0
 10
0.993643155411571
 20
0.984693539153771
 30
0.0
 11
0.880343467429099
 21
1.53590502464178
 31
0.0
  0
LINE
  8
0
  6
CONTINUOUS
 62
0
 10
0.880343467429099
 20
1.53590502464178
 30
0.0
 11
0.875466074722383
 21
1.58707434527025
 31
0.0
  0
LINE
  8
0
  6
CONTINUOUS
 62
0
 10
0.875466074722383
 20
1.58707434527025
 30
0.0
 11
1.00011166477588
 21
3.10787401574803
 31
0.0
  0
ARC
  8
1
  6
CONTINUOUS
 62
1
 10
1.86614173225997
 20
1.59055118110546
 30
0.0
 40
0.0688976377717827
 50
164.999999997428
 51
180.000000002573
  0
ARC
  8
1
  6
CONTINUOUS
 62
1
 10
1.86614173228346
 20
1.59055118110236
 30
0.0
 40
0.0688976377952789
 50
179.999999999999
 51
359.999999999999
  0
ARC
  8
1
  6
CONTINUOUS
 62
1
 10
1.86614173228428
 20
1.59055118110855
 30
0.0
 40
0.0688976377944645
 50
359.999999994854
 51
165.000000005145
  0
ARC
  8
1
  6
CONTINUOUS
 62
1
 10
1.5118110235717
 20
1.59055118110899
 30
0.0
 40
0.147637795225241
 50
164.999999997427
 51
180.000000002572
  0
ARC
  8
1
  6
CONTINUOUS
 62
1
 10
1.51181102362205
 20
1.59055118110236
 30
0.0
 40
0.147637795275591
 50
179.999999999999
 51
359.999999999999
  0
ARC
  8
1
  6
CONTINUOUS
 62
1
 10
1.51181102362379
 20
1.59055118111562
 30
0.0
 40
0.147637795273845
 50
359.999999994855
 51
165.000000005145
  0
ARC
  8
1
  6
CONTINUOUS
 62
1
 10
1.15748031495884
 20
1.59055118110546
 30
0.0
 40
0.0688976377934931
 50
59.9999999974273
 51
180.000000002572
  0
ARC
  8
1
  6
CONTINUOUS
 62
1
 10
1.15748031496063
 20
1.59055118110236
 30
0.0
 40
0.068897637795279
 50
179.999999999999
 51
359.999999999999
  0
ARC
  8
1
  6
CONTINUOUS
 62
1
 10
1.15748031497134
 20
1.59055118110855
 30
0.0
 40
0.0688976377845633
 50
359.999999994855
 51
60.0000000051447
  0
ARC
  8
1
  6
CONTINUOUS
 62
1
 10
1.51181102363833
 20
2.57480314958509
 30
0.0
 40
0.236220472424668
 50
254.999999994854
 51
5.14476983609494E-9
  0
ARC
  8
1
  6
CONTINUOUS
 62
1
 10
1.51181102362205
 20
2.5748031496063
 30
0.0
 40
0.236220472440945
 50
359.999999999999
 51
180
  0
ARC
  8
1
  6
CONTINUOUS
 62
1
 10
1.51181102360823
 20
2.57480314959569
 30
0.0
 40
0.236220472427123
 50
179.999999997427
 51
255.000000002572
  0
LINE
  8
1
  6
CONTINUOUS
 62
1
 10
1.11811023622047
 20
1
 30
0.0
 11
1.11811023622047
 21
1.43807153543307
 31
0.0
  0
ARC
  8
1
  6
CONTINUOUS
 62
1
 10
1.15748031496063
 20
1.59055118110236
 30
0.0
 40
0.15748031496063
 50
104.477512
 51
255.522488
  0
LINE
  8
1
  6
CONTINUOUS
 62
1
 10
1.11811023622047
 20
1.74303082677165
 30
0.0
 11
1.11811023622047
 21
2.73228346456693
 31
0.0
  0
ARC
  8
1
  6
CONTINUOUS
 62
1
 10
1.39370078740157
 20
2.73228346456693
 30
0.0
 40
0.275590551181102
 50
89.9999999999998
 51
180
  0
LINE
  8
1
  6
CONTINUOUS
 62
1
 10
1.39370078740157
 20
3.00787401574803
 30
0.0
 11
1.62992125984252
 21
3.00787401574803
 31
0.0
  0
ARC
  8
1
  6
CONTINUOUS
 62
1
 10
1.62992125984252
 20
2.73228346456693
 30
0.0
 40
0.275590551181102
 50
359.999999999999
 51
89.9999999999998
  0
LINE
  8
1
  6
CONTINUOUS
 62
1
 10
1.90551181102362
 20
2.73228346456693
 30
0.0
 11
1.90551181102362
 21
1.74303082677165
 31
0.0
  0
ARC
  8
1
  6
CONTINUOUS
 62
1
 10
1.86614173228346
 20
1.59055118110236
 30
0.0
 40
0.15748031496063
 50
284.477512
 51
75.5224880000005
  0
LINE
  8
1
  6
CONTINUOUS
 62
1
 10
1.90551181102362
 20
1.43807153543307
 30
0.0
 11
1.90551181102362
 21
1
 31
0.0
  0
LINE
  8
1
  6
CONTINUOUS
 62
1
 10
1.90551181102362
 20
1
 30
0.0
 11
1.6496062992126
 21
1
 31
0.0
  0
LINE
  8
1
  6
CONTINUOUS
 62
1
 10
1.6496062992126
 20
1
 30
0.0
 11
1.6496062992126
 21
1.1496062992126
 31
0.0
  0
ARC
  8
1
  6
CONTINUOUS
 62
1
 10
1.6496062992126
 20
1.18897637795276
 30
0.0
 40
0.0393700787401576
 50
269.999999999999
 51
44.9999999999998
  0
ARC
  8
1
  6
CONTINUOUS
 62
1
 10
1.6496062992126
 20
1.18897637795276
 30
0.0
 40
0.0393700787401575
 50
45
 51
180
  0
LINE
  8
1
  6
CONTINUOUS
 62
1
 10
1.61023622047244
 20
1.18897637795276
 30
0.0
 11
1.41338582677165
 21
1.18897637795276
 31
0.0
  0
ARC
  8
1
  6
CONTINUOUS
 62
1
 10
1.3740157480315
 20
1.18897637795276
 30
0.0
 40
0.0393700787401575
 50
359.999999999999
 51
135
  0
ARC
  8
1
  6
CONTINUOUS
 62
1
 10
1.3740157480315
 20
1.18897637795276
 30
0.0
 40
0.0393700787401576
 50
134.999999999999
 51
269.999999999999
  0
LINE
  8
1
  6
CONTINUOUS
 62
1
 10
1.3740157480315
 20
1.1496062992126
 30
0.0
 11
1.3740157480315
 21
1
 31
0.0
  0
LINE
  8
1
  6
CONTINUOUS
 62
1
 10
1.3740157480315
 20
1
 30
0.0
 11
1.11811023622047
 21
1
 31
0.0
  0
LINE
  8
9
  6
CONTINUOUS
 62
9
 10
1.86685621324622
 20
1.5934710238007
 30
0.0
 11
1.7995917245667
 21
1.60838320192636
 31
0.0
  0
LINE
  8
9
  6
CONTINUOUS
 62
9
 10
1.7995917245667
 20
1.60838320192636
 30
0.0
 11
1.84727757210411
 21
1.59334791195114
 31
0.0
  0
LINE
  8
9
  6
CONTINUOUS
 62
9
 10
1.51334205425653
 20
1.59680798688451
 30
0.0
 11
1.36920386422898
 21
1.62876265429663
 31
0.0
  0
LINE
  8
9
  6
CONTINUOUS
 62
9
 10
1.36920386422898
 20
1.62876265429663
 30
0.0
 11
1.41688971176639
 21
1.61372736432142
 31
0.0
  0
LINE
  8
9
  6
CONTINUOUS
 62
9
 10
1.16011574515113
 20
1.58910533458901
 30
0.0
 11
1.19192913385827
 21
1.65021828569381
 31
0.0
  0
LINE
  8
9
  6
CONTINUOUS
 62
9
 10
1.19192913385827
 20
1.65021828569381
 30
0.0
 11
1.16506415344093
 21
1.60804871340317
 31
0.0
  0
LINE
  8
9
  6
CONTINUOUS
 62
9
 10
1.48313860860193
 20
2.49307609564538
 30
0.0
 11
1.45067266651122
 21
2.34663169457739
 31
0.0
  0
LINE
  8
9
  6
CONTINUOUS
 62
9
 10
1.45067266651122
 20
2.34663169457739
 30
0.0
 11
1.46570795648643
 21
2.3943175421148
 31
0.0
  0
LINE
  8
9
  6
CONTINUOUS
 62
9
 10
1.11811023622047
 20
0.85
 30
0.0
 11
1.11811023622047
 21
1
 31
0.0
  0
LINE
  8
9
  6
CONTINUOUS
 62
9
 10
1.11811023622047
 20
1
 30
0.0
 11
1.06811023622047
 21
1
 31
0.0
  0
ENDSEC
  0
EOF
